# Blender 4.1.0
# www.blender.org
mtllib Border2.mtl
o Border2
v -1.526142 -0.250000 0.125000
v -1.526142 -0.250000 0.075000
v -1.526142 0.250000 0.125000
v -1.526142 0.250000 0.075000
v 0.473858 -0.250000 -0.125000
v 0.473858 -0.250000 0.125000
v 0.473858 0.250000 -0.125000
v 0.473858 0.250000 0.125000
v -1.276142 -0.250000 0.125000
v -1.276142 0.250000 0.125000
v -1.276142 -0.250000 -0.125000
v -1.276142 0.250000 -0.125000
v -1.326142 0.250000 -0.125000
v -1.326142 -0.250000 -0.125000
v -1.526142 -0.250000 1.625620
v -1.276142 -0.250000 1.625620
v -1.526142 0.250000 1.625620
v -1.276142 0.250000 1.625620
vn -0.0000 -1.0000 -0.0000
vn -0.0000 1.0000 -0.0000
vn -1.0000 -0.0000 -0.0000
vn 1.0000 -0.0000 -0.0000
vn -0.0000 -0.0000 1.0000
vn -0.0000 -0.0000 -1.0000
vn -0.7071 -0.0000 -0.7071
vt 0.254417 0.316344
vt 0.248136 0.316344
vt 0.254417 0.284941
vt 0.223014 0.291221
vt 0.223014 0.284941
vt 0.128804 0.284941
vt 0.160207 0.284941
vt 0.160207 0.291221
vt 0.172322 0.367035
vt 0.178603 0.335632
vt 0.203725 0.360754
vt 0.203725 0.367035
vt 0.266532 0.360754
vt 0.266532 0.367035
vt 0.254417 0.002312
vt 0.254417 0.065119
vt 0.223014 0.065119
vt 0.223014 0.002312
vt 0.317223 0.284941
vt 0.317223 0.065119
vt 0.160207 0.065119
vt 0.223014 0.065119
vt 0.128804 0.065119
vt 0.442913 0.284941
vt 0.442913 0.316344
vt 0.266532 0.555532
vt 0.203725 0.555532
vt 0.172322 0.555532
vt 0.109516 0.555532
vt 0.109516 0.367035
s 0
usemtl Material
f 1/1/1 2/2/1 9/3/1
f 2/2/1 14/4/1 9/3/1
f 14/4/1 11/5/1 9/3/1
f 10/6/2 12/7/2 13/8/2
f 10/9/2 13/10/2 4/11/2
f 10/9/2 4/11/2 3/12/2
f 4/11/3 2/13/3 1/14/3
f 1/14/3 3/12/3 4/11/3
f 8/15/4 6/16/4 5/17/4
f 5/17/4 7/18/4 8/15/4
f 10/19/5 9/3/5 6/16/5
f 6/16/5 8/20/5 10/19/5
f 12/7/6 7/21/6 5/22/6
f 5/22/6 11/5/6 12/7/6
f 8/23/2 7/21/2 12/7/2
f 12/7/2 10/6/2 8/23/2
f 6/16/1 9/3/1 11/5/1
f 11/5/1 5/17/1 6/16/1
f 13/8/6 12/7/6 11/5/6
f 11/5/6 14/4/6 13/8/6
f 14/4/7 2/2/7 4/11/7
f 4/11/7 13/10/7 14/4/7
f 16/24/1 15/25/1 1/1/1
f 1/1/1 9/3/1 16/24/1
f 3/12/3 1/14/3 15/26/3
f 15/26/3 17/27/3 3/12/3
f 10/9/4 18/28/4 16/29/4
f 16/29/4 9/30/4 10/9/4
f 18/28/2 10/9/2 3/12/2
f 3/12/2 17/27/2 18/28/2
