# Blender 4.1.0
# www.blender.org
mtllib Border3.mtl
o Border2.001
v 0.875000 -0.250000 -0.125000
v 0.875000 -0.250000 0.125000
v 0.875000 0.250000 -0.125000
v 0.875000 0.250000 0.125000
v -0.875000 -0.250000 0.125000
v -0.875000 0.250000 0.125000
v -0.875000 -0.250000 -0.125000
v -0.875000 0.250000 -0.125000
vn -0.0000 -0.0000 1.0000
vn -0.0000 -0.0000 -1.0000
vn -0.0000 1.0000 -0.0000
vn -0.0000 -1.0000 -0.0000
vt 0.317223 0.284941
vt 0.254417 0.284941
vt 0.254417 0.065119
vt 0.317223 0.065119
vt 0.160207 0.284941
vt 0.160207 0.065119
vt 0.223014 0.065119
vt 0.223014 0.284941
vt 0.128804 0.065119
vt 0.128804 0.284941
s 0
usemtl Material.001
f 6/1/1 5/2/1 2/3/1
f 2/3/1 4/4/1 6/1/1
f 8/5/2 3/6/2 1/7/2
f 1/7/2 7/8/2 8/5/2
f 4/9/3 3/6/3 8/5/3
f 8/5/3 6/10/3 4/9/3
f 2/3/4 5/2/4 7/8/4
f 7/8/4 1/7/4 2/3/4
