# Blender 4.1.1
# www.blender.org
mtllib ClockBoard.mtl
o ClockBoard
v -4.125000 -2.250000 -3.925943
v 4.125000 -2.250000 -3.925943
v -4.125000 -2.250000 -4.175943
v 4.125000 -2.250000 -4.175943
v 4.125000 3.250000 -3.925934
v -4.125000 3.250000 -3.925943
v 4.125000 3.250000 -4.175934
v -4.125000 3.250000 -4.175943
v -4.125000 -1.000000 -3.925943
v -4.125000 -1.000000 -4.175943
v 4.125000 -1.000000 -3.925933
v 4.125000 -1.000000 -4.175933
vn -0.0000 -1.0000 -0.0000
vn -0.0000 1.0000 -0.0000
vn -1.0000 -0.0000 -0.0000
vn 1.0000 -0.0000 -0.0000
vn -0.0000 -0.0000 -1.0000
vt 0.657116 0.971351
vt 0.657117 0.028650
vt 0.685684 0.028650
vt 0.685683 0.971351
vt 0.028650 0.028650
vt 0.028650 0.971350
vt 0.000083 0.971350
vt 0.000083 0.028650
vt 0.514283 0.971350
vt 0.514283 0.999917
vt 0.028650 0.999917
vt 0.657116 0.999917
vt 0.514283 0.000083
vt 0.657117 0.000083
vt 0.514283 0.028649
vt 0.028650 0.000083
s 0
usemtl Material.001
f 3/1/1 4/2/1 2/3/1 1/4/1
f 7/5/2 8/6/2 6/7/2 5/8/2
f 8/6/3 10/9/3 9/10/3 6/11/3
f 10/9/3 3/1/3 1/12/3 9/10/3
f 11/13/4 2/14/4 4/2/4 12/15/4
f 5/16/4 11/13/4 12/15/4 7/5/4
f 10/9/5 8/6/5 7/5/5 12/15/5
f 3/1/5 10/9/5 12/15/5 4/2/5
