# Blender 4.1.1
# www.blender.org
mtllib Clock.mtl
o Clock
v 0.000000 2.700000 -0.250000
v 0.000000 2.700000 0.250000
v 1.033245 2.494475 -0.250000
v 1.033245 2.494475 0.250000
v 1.909188 1.909188 -0.250000
v 1.909188 1.909188 0.250000
v 2.494475 1.033245 -0.250000
v 2.494475 1.033245 0.250000
v 2.700000 0.000000 -0.250000
v 2.700000 -0.000000 0.250000
v 2.494475 -1.033245 -0.250000
v 2.494475 -1.033245 0.250000
v 1.909188 -1.909188 -0.250000
v 1.909188 -1.909188 0.250000
v 1.033245 -2.494475 -0.250000
v 1.033245 -2.494475 0.250000
v 0.000000 -2.700000 -0.250000
v 0.000000 -2.700000 0.250000
v -1.033245 -2.494475 -0.250000
v -1.033245 -2.494475 0.250000
v -1.909188 -1.909188 -0.250000
v -1.909188 -1.909188 0.250000
v -2.494475 -1.033245 -0.250000
v -2.494475 -1.033245 0.250000
v -2.700000 0.000000 -0.250000
v -2.700000 -0.000000 0.250000
v -2.494475 1.033245 -0.250000
v -2.494475 1.033245 0.250000
v -1.909188 1.909188 -0.250000
v -1.909188 1.909188 0.250000
v -1.033245 2.494475 -0.250000
v -1.033245 2.494475 0.250000
vn 0.1951 0.9808 -0.0000
vn 0.5556 0.8315 -0.0000
vn 0.8315 0.5556 -0.0000
vn 0.9808 0.1951 -0.0000
vn 0.9808 -0.1951 -0.0000
vn 0.8315 -0.5556 -0.0000
vn 0.5556 -0.8315 -0.0000
vn 0.1951 -0.9808 -0.0000
vn -0.1951 -0.9808 -0.0000
vn -0.5556 -0.8315 -0.0000
vn -0.8315 -0.5556 -0.0000
vn -0.9808 -0.1951 -0.0000
vn -0.9808 0.1951 -0.0000
vn -0.8315 0.5556 -0.0000
vn -0.5556 0.8315 -0.0000
vn -0.1951 0.9808 -0.0000
vn -0.0000 -0.0000 -1.0000
vt 0.261756 0.143443
vt 0.231367 0.070075
vt 0.385950 0.006045
vt 0.416340 0.079412
vt 0.416340 -0.000000
vt 0.583660 0.000000
vt 0.583660 0.079413
vt 0.614050 0.006045
vt 0.768634 0.070076
vt 0.738244 0.143443
vt 0.794397 0.087290
vt 0.912710 0.205603
vt 0.856557 0.261756
vt 0.929924 0.231367
vt 0.993955 0.385950
vt 0.920587 0.416340
vt 1.000000 0.416340
vt 1.000000 0.583660
vt 0.920587 0.583660
vt 0.993955 0.614050
vt 0.929924 0.768634
vt 0.856557 0.738244
vt 0.912710 0.794397
vt 0.794397 0.912710
vt 0.738244 0.856557
vt 0.768633 0.929925
vt 0.614050 0.993955
vt 0.583660 0.920587
vt 0.583660 1.000000
vt 0.416340 1.000000
vt 0.416340 0.920587
vt 0.385950 0.993955
vt 0.231366 0.929924
vt 0.261756 0.856557
vt 0.205603 0.912710
vt 0.087290 0.794397
vt 0.143443 0.738244
vt 0.070075 0.768633
vt 0.006045 0.614050
vt 0.079412 0.583660
vt 0.000000 0.583660
vt 0.000000 0.416340
vt 0.079413 0.416340
vt 0.006045 0.385950
vt 0.070076 0.231366
vt 0.143443 0.261756
vt 0.087290 0.205603
vt 0.205603 0.087290
s 0
usemtl Material
f 1/1/1 2/2/1 4/3/1 3/4/1
f 3/4/2 4/5/2 6/6/2 5/7/2
f 5/7/3 6/8/3 8/9/3 7/10/3
f 7/10/4 8/11/4 10/12/4 9/13/4
f 9/13/5 10/14/5 12/15/5 11/16/5
f 11/16/6 12/17/6 14/18/6 13/19/6
f 13/19/7 14/20/7 16/21/7 15/22/7
f 15/22/8 16/23/8 18/24/8 17/25/8
f 17/25/9 18/26/9 20/27/9 19/28/9
f 19/28/10 20/29/10 22/30/10 21/31/10
f 21/31/11 22/32/11 24/33/11 23/34/11
f 23/34/12 24/35/12 26/36/12 25/37/12
f 25/37/13 26/38/13 28/39/13 27/40/13
f 27/40/14 28/41/14 30/42/14 29/43/14
f 29/43/15 30/44/15 32/45/15 31/46/15
f 31/46/16 32/47/16 2/48/16 1/1/16
f 1/1/17 3/4/17 5/7/17 7/10/17 9/13/17 11/16/17 13/19/17 15/22/17 17/25/17 19/28/17 21/31/17 23/34/17 25/37/17 27/40/17 29/43/17 31/46/17
