# Blender 4.1.1
# www.blender.org
mtllib Qmanager.mtl
o QmanagerPole
v -0.123788 -0.458755 0.000000
v 0.001212 -0.416716 0.000000
v -0.109470 -0.458755 0.058090
v -0.069796 -0.458755 0.102871
v -0.013855 -0.458755 0.124090
v 0.045538 -0.458755 0.116880
v 0.094776 -0.458755 0.082892
v 0.122580 -0.458755 0.029911
v 0.122580 -0.458755 -0.029919
v 0.094776 -0.458755 -0.082890
v 0.045538 -0.458755 -0.116878
v -0.013855 -0.458755 -0.124088
v -0.069796 -0.458755 -0.102869
v -0.109470 -0.458755 -0.058088
v -0.050604 -0.456992 0.000000
v -0.050604 0.407034 -0.000000
v -0.025604 -0.456992 0.043301
v -0.025604 0.407034 0.043301
v 0.024396 -0.456992 0.043301
v 0.024396 0.407034 0.043301
v 0.049396 -0.456992 0.000000
v 0.049396 0.407034 -0.000000
v 0.024396 -0.456992 -0.043299
v 0.024396 0.407034 -0.043299
v -0.025604 -0.456992 -0.043299
v -0.025604 0.407034 -0.043299
v -0.060327 0.396185 -0.000000
v -0.060327 0.565278 -0.000000
v -0.030466 0.396185 0.051722
v -0.030466 0.565278 0.051722
v 0.029257 0.396185 0.051722
v 0.029257 0.565278 0.051722
v 0.059119 0.396185 -0.000000
v 0.059119 0.565278 -0.000000
v 0.029257 0.396185 -0.051720
v 0.029257 0.565278 -0.051720
v -0.030466 0.396185 -0.051720
v -0.030466 0.565278 -0.051720
v -0.000604 0.396185 -0.000000
v -0.000604 0.565278 -0.000000
vn -0.3178 0.9449 0.0783
vn -0.2450 0.9449 0.2170
vn -0.1161 0.9449 0.3060
vn 0.0394 0.9449 0.3249
vn 0.1859 0.9449 0.2694
vn 0.2898 0.9449 0.1521
vn 0.3273 0.9449 -0.0000
vn 0.2898 0.9449 -0.1521
vn 0.1859 0.9449 -0.2694
vn 0.0394 0.9449 -0.3249
vn -0.1161 0.9449 -0.3060
vn -0.2450 0.9449 -0.2170
vn -0.3178 0.9449 -0.0783
vn -0.0000 -1.0000 -0.0000
vn -0.0000 1.0000 -0.0000
vn -0.5000 -0.0000 0.8660
vn -1.0000 -0.0000 -0.0000
vn 0.5000 -0.0000 0.8660
vn 1.0000 -0.0000 -0.0000
vn 0.5000 -0.0000 -0.8660
vn 0.4999 -0.0000 -0.8661
vn -0.5000 -0.0000 -0.8660
vn -0.4999 -0.0000 -0.8661
vt 0.138578 0.905593
vt 0.133363 0.891843
vt 0.144370 0.901595
vt 0.131591 0.906441
vt 0.125009 0.903945
vt 0.120342 0.898677
vt 0.118658 0.891843
vt 0.120343 0.885009
vt 0.125010 0.879740
vt 0.131591 0.877245
vt 0.138578 0.878093
vt 0.144371 0.882092
vt 0.147641 0.888324
vt 0.147641 0.895363
vt 0.118658 0.810728
vt 0.129081 0.804710
vt 0.129081 0.816746
vt 0.139505 0.810728
vt 0.139505 0.798692
vt 0.129081 0.792675
vt 0.118658 0.798693
vt 0.184005 0.816746
vt 0.184005 0.804710
vt 0.194428 0.810728
vt 0.173582 0.810728
vt 0.173582 0.798692
vt 0.184005 0.792675
vt 0.194428 0.798693
vt 0.086335 0.698840
vt 0.102460 0.698840
vt 0.102460 0.977486
vt 0.086335 0.977486
vt 0.070210 0.698840
vt 0.070210 0.977486
vt 0.054086 0.698840
vt 0.054086 0.977486
vt 0.037961 0.698840
vt 0.037961 0.977486
vt 0.021837 0.698840
vt 0.021837 0.977486
vt 0.118584 0.698840
vt 0.118584 0.977486
vt 0.173582 0.822764
vt 0.173582 0.834800
vt 0.139505 0.834800
vt 0.139505 0.822764
vt 0.173582 0.858871
vt 0.173582 0.870907
vt 0.139505 0.870907
vt 0.139505 0.858871
vt 0.173582 0.846835
vt 0.139505 0.846835
s 0
usemtl ProBuilder_Default_URP.001
f 3/1/1 2/2/1 1/3/1
f 4/4/2 2/2/2 3/1/2
f 5/5/3 2/2/3 4/4/3
f 6/6/4 2/2/4 5/5/4
f 7/7/5 2/2/5 6/6/5
f 8/8/6 2/2/6 7/7/6
f 9/9/7 2/2/7 8/8/7
f 10/10/8 2/2/8 9/9/8
f 11/11/9 2/2/9 10/10/9
f 12/12/10 2/2/10 11/11/10
f 13/13/11 2/2/11 12/12/11
f 14/14/12 2/2/12 13/13/12
f 1/3/13 2/2/13 14/14/13
f 27/15/14 39/16/14 29/17/14
f 29/17/14 39/16/14 31/18/14
f 31/18/14 39/16/14 33/19/14
f 33/19/14 39/16/14 35/20/14
f 35/20/14 39/16/14 37/21/14
f 37/21/14 39/16/14 27/15/14
f 30/22/15 40/23/15 28/24/15
f 32/25/15 40/23/15 30/22/15
f 34/26/15 40/23/15 32/25/15
f 36/27/15 40/23/15 34/26/15
f 38/28/15 40/23/15 36/27/15
f 28/24/15 40/23/15 38/28/15
f 18/29/16 16/30/17 15/31/17
f 15/31/17 17/32/16 18/29/16
f 20/33/18 18/29/16 17/32/16
f 17/32/16 19/34/18 20/33/18
f 22/35/19 20/33/18 19/34/18
f 19/34/18 21/36/19 22/35/19
f 24/37/20 22/35/19 21/36/19
f 21/36/19 23/38/21 24/37/21
f 26/39/22 24/37/20 23/38/20
f 23/38/20 25/40/22 26/39/22
f 16/30/17 26/41/23 25/42/23
f 25/42/22 15/31/17 16/30/17
f 30/43/16 28/44/17 27/45/17
f 27/45/17 29/46/16 30/43/16
f 32/25/18 30/43/16 29/46/16
f 29/46/16 31/18/18 32/25/18
f 34/26/19 32/25/18 31/18/18
f 31/18/18 33/19/19 34/26/19
f 36/47/20 34/48/19 33/49/19
f 33/49/19 35/50/20 36/47/20
f 38/51/22 36/47/20 35/50/20
f 35/50/20 37/52/22 38/51/22
f 28/44/17 38/51/22 37/52/22
f 37/52/22 27/45/17 28/44/17
