# Blender 4.1.1
# www.blender.org
mtllib QribbonStraight.mtl
o QueueRibbon
v 0.002047 -0.027765 0.756930
v -0.002047 -0.027765 0.756930
v 0.002047 0.027765 0.756930
v -0.002047 0.027765 0.756930
v -0.002047 -0.027765 -0.756930
v -0.002047 0.027765 -0.756930
v 0.002047 -0.027765 -0.756930
v 0.002047 0.027765 -0.756930
v -0.002047 -0.027765 0.504620
v -0.002047 -0.027765 0.252310
v -0.002047 -0.027765 -0.000000
v -0.002047 -0.027765 -0.252310
v -0.002047 -0.027765 -0.504620
v -0.002047 0.027765 0.504620
v -0.002047 0.027765 0.252310
v -0.002047 0.027765 -0.000000
v -0.002047 0.027765 -0.252310
v -0.002047 0.027765 -0.504620
v 0.002047 0.027765 0.504620
v 0.002047 0.027765 0.252310
v 0.002047 0.027765 -0.000000
v 0.002047 0.027765 -0.252310
v 0.002047 0.027765 -0.504620
v 0.002047 -0.027765 0.504620
v 0.002047 -0.027765 0.252310
v 0.002047 -0.027765 -0.000000
v 0.002047 -0.027765 -0.252310
v 0.002047 -0.027765 -0.504620
vn -0.0000 -0.0000 1.0000
vn -1.0000 -0.0000 -0.0000
vn -0.0000 -0.0000 -1.0000
vn 1.0000 -0.0000 -0.0000
vn -0.0000 1.0000 -0.0000
vn -0.0000 -1.0000 -0.0000
vt 0.012423 0.998314
vt 0.011610 0.998314
vt 0.011610 0.987281
vt 0.012423 0.987281
vt 0.000576 0.736622
vt 0.000575 0.686490
vt 0.011609 0.686490
vt 0.011609 0.736622
vt 0.314027 0.998313
vt 0.313214 0.998313
vt 0.313214 0.987280
vt 0.314027 0.987280
vt 0.062555 0.998314
vt 0.062555 0.987281
vt 0.062555 0.999127
vt 0.012423 0.999128
vt 0.012422 0.736622
vt 0.012422 0.686490
vt 0.011610 0.937149
vt 0.012423 0.937149
vt 0.011609 0.887017
vt 0.012423 0.887017
vt 0.011609 0.836885
vt 0.012423 0.836885
vt 0.011609 0.786753
vt 0.012422 0.786753
vt 0.313214 0.999127
vt 0.263082 0.999127
vt 0.263082 0.998313
vt 0.212950 0.999127
vt 0.212950 0.998313
vt 0.162819 0.999127
vt 0.162819 0.998314
vt 0.112687 0.999127
vt 0.112687 0.998314
vt 0.263082 0.987280
vt 0.212950 0.987280
vt 0.162818 0.987280
vt 0.112687 0.987280
vt 0.000576 0.987281
vt 0.000576 0.937149
vt 0.000576 0.887017
vt 0.000576 0.836885
vt 0.000576 0.786754
s 0
usemtl ProBuilder_Default_URP.002
f 3/1/1 4/2/1 2/3/1 1/4/1
f 18/5/2 6/6/2 5/7/2 13/8/2
f 6/9/3 8/10/3 7/11/3 5/12/3
f 19/13/4 3/1/4 1/4/4 24/14/4
f 19/13/5 14/15/5 4/16/5 3/1/5
f 28/17/6 13/8/6 5/7/6 7/18/6
f 1/4/6 2/3/6 9/19/6 24/20/6
f 24/20/6 9/19/6 10/21/6 25/22/6
f 25/22/6 10/21/6 11/23/6 26/24/6
f 26/24/6 11/23/6 12/25/6 27/26/6
f 27/26/6 12/25/6 13/8/6 28/17/6
f 8/10/5 6/27/5 18/28/5 23/29/5
f 23/29/5 18/28/5 17/30/5 22/31/5
f 22/31/5 17/30/5 16/32/5 21/33/5
f 21/33/5 16/32/5 15/34/5 20/35/5
f 20/35/5 15/34/5 14/15/5 19/13/5
f 8/10/4 23/29/4 28/36/4 7/11/4
f 23/29/4 22/31/4 27/37/4 28/36/4
f 22/31/4 21/33/4 26/38/4 27/37/4
f 21/33/4 20/35/4 25/39/4 26/38/4
f 20/35/4 19/13/4 24/14/4 25/39/4
f 4/40/2 14/41/2 9/19/2 2/3/2
f 14/41/2 15/42/2 10/21/2 9/19/2
f 15/42/2 16/43/2 11/23/2 10/21/2
f 16/43/2 17/44/2 12/25/2 11/23/2
f 17/44/2 18/5/2 13/8/2 12/25/2
